# xmcd
#
# Track frame offsets:
#	150
#	15386
#	28472
#	40928
#	54002
#	65439
#	79795
#	93991
#	108500
#	122417
#	139720
#	148726
#
# Disc length: 2202 seconds
#
# Revision: 1
# Processed by: cddbd v1.5.2PL0 Copyright (c) Steve Scherf et al.
# Submitted via: audiograbber 1.83.01
#
DISCID=9a08980c
DTITLE=Misty - Misty TEX-CDX  05
DYEAR=1900
DGENRE=
TTITLE0=Back In The Beer Joints  - James Segrest
TTITLE1=I´m Sorry  - Christie James
TTITLE2=If Anybody Seems My Baby  - Antonio Rosales 
TTITLE3=Can´t Help Falling In Love With You  - Jim Dilley
TTITLE4=Everbody Love A Love Song  - Electa Winter
TTITLE5=Making Like They Used To - Kevin Robinson
TTITLE6=Supposendly - Wesley Lalacy
TTITLE7=I´m Here For The Party  - Gary Josey
TTITLE8=Little Bit Of Texas  - Sandy Samples 
TTITLE9=She Played Me For The Fool  - Jimmy Coyle
TTITLE10=I´ll Comming Running To You  - Kari Hiavinka 
TTITLE11=How Do I Break The Chains  - Phil Coley
EXTD=
EXTT0=
EXTT1=
EXTT2=
EXTT3=
EXTT4=
EXTT5=
EXTT6=
EXTT7=
EXTT8=
EXTT9=
EXTT10=
EXTT11=
PLAYORDER=
